<svg xmlns="http://www.w3.org/2000/svg" width="2256" height="314" viewBox="0 0 2256 314" version="1.1"><path d="M 1534 55.639 C 1504.407 61.396, 1486.150 72.148, 1472.258 92 C 1447.688 127.113, 1448.467 187.526, 1473.983 225.737 C 1476.241 229.119, 1481.517 235.087, 1485.706 238.999 C 1501.773 254.004, 1525.259 261.161, 1553.500 259.659 C 1585.360 257.964, 1608.177 243.320, 1622.302 215.500 C 1625.944 208.325, 1630 196.990, 1630 193.985 C 1630 192.656, 1627.236 191.614, 1616.926 189.057 C 1609.735 187.274, 1603.648 186.018, 1603.400 186.267 C 1603.151 186.516, 1602.023 189.370, 1600.893 192.610 C 1593.902 212.655, 1583.219 225.305, 1567.894 231.685 C 1562.370 233.985, 1559.715 234.407, 1548.390 234.785 C 1538.023 235.132, 1534.057 234.868, 1529.433 233.524 C 1508.834 227.535, 1494.965 213.408, 1488.666 192 C 1480.146 163.039, 1482.087 131.890, 1493.803 109.537 C 1511.585 75.613, 1565.097 68.282, 1587.460 96.706 C 1591.594 101.960, 1599 115.581, 1599 117.929 C 1599 120.196, 1601.888 120.012, 1614.163 116.959 L 1627.194 113.719 1626.587 110.610 C 1626.253 108.899, 1623.649 102.775, 1620.799 97 C 1616.322 87.926, 1614.388 85.267, 1606.559 77.418 C 1599.205 70.045, 1595.900 67.550, 1589 64.162 C 1576.243 57.898, 1567.098 55.832, 1550.500 55.464 C 1542.800 55.293, 1535.375 55.372, 1534 55.639 M 1728.994 56.476 C 1705.862 60.864, 1688.712 71.365, 1673.463 90.476 C 1667.136 98.406, 1660.603 112.195, 1657.343 124.500 C 1655.011 133.301, 1654.642 136.898, 1654.262 154.500 C 1653.891 171.665, 1654.110 175.864, 1655.808 184.119 C 1665.333 230.422, 1701.084 259.780, 1748.178 259.969 C 1779.309 260.094, 1808.234 246.242, 1824.531 223.405 C 1830.749 214.690, 1836.557 202.044, 1839.778 190.206 C 1842.259 181.089, 1842.422 179.134, 1842.460 158 C 1842.497 137.447, 1842.295 134.721, 1840.129 126.500 C 1830.685 90.659, 1808.120 67.099, 1774.500 57.979 C 1764.068 55.149, 1740.152 54.359, 1728.994 56.476 M 1878.250 59.031 L 1876 59.936 1876 158.468 L 1876 257 1915.949 257 C 1959.639 257, 1972.567 256, 1986.739 251.523 C 2005.340 245.647, 2018.685 233.499, 2028.509 213.500 C 2037.215 195.779, 2040.297 180.557, 2040.354 155 C 2040.431 120.480, 2030.977 95.155, 2011.165 76.813 C 1999.523 66.035, 1985.500 60.825, 1963.274 59.020 C 1947.891 57.771, 1881.364 57.780, 1878.250 59.031 M 2076 157.500 L 2076 257 2150.500 257 L 2225 257 2225 244.500 L 2225 232 2164 232 L 2103 232 2103 199.509 L 2103 167.017 2157.750 166.759 L 2212.500 166.500 2212.781 154.250 L 2213.062 142 2158.638 142 C 2109.933 142, 2104.150 141.834, 2103.607 140.418 C 2103.273 139.548, 2103 126.498, 2103 111.418 L 2103 84 2161.500 84 L 2220 84 2220 71 L 2220 58 2148 58 L 2076 58 2076 157.500 M 1740.477 78.936 C 1719.309 82.266, 1699.966 94.899, 1691.738 110.769 C 1680.743 131.974, 1678.179 161.351, 1685.090 186.943 C 1691.075 209.106, 1706.181 225.477, 1727.725 233.146 C 1736.008 236.095, 1755.124 236.831, 1764 234.543 C 1776.004 231.448, 1784.701 226.435, 1793.500 217.540 C 1803.103 207.832, 1807.989 199.190, 1811.729 185.295 C 1814.117 176.423, 1814.365 173.805, 1814.365 157.500 C 1814.365 141.196, 1814.117 138.577, 1811.729 129.706 C 1803.433 98.882, 1782.371 80.722, 1752.500 78.635 C 1748.650 78.366, 1743.239 78.501, 1740.477 78.936 M 1903.750 83.572 C 1903.338 83.991, 1903 117.558, 1903 158.167 L 1903 232 1931.750 231.983 C 1964.271 231.963, 1970.056 231.213, 1981.645 225.510 C 1993.885 219.487, 2002.508 208.077, 2007.811 190.886 C 2011.285 179.623, 2012.309 169.125, 2011.737 150.627 C 2011.283 135.973, 2010.822 132.204, 2008.542 124.522 C 2005.278 113.526, 2002.069 107.487, 1995.523 100.019 C 1989.093 92.683, 1982.909 88.414, 1974.889 85.774 C 1969.070 83.858, 1965.645 83.632, 1936.500 83.241 C 1918.900 83.005, 1904.162 83.154, 1903.750 83.572" stroke="none" fill="#f9f9fa" fill-rule="evenodd"/><path d="M 0 157 L 0 314.001 1128.250 313.750 L 2256.500 313.500 2256.753 156.750 L 2257.006 0 1128.503 0 L 0 0 0 157 M 0.488 157.500 C 0.488 243.850, 0.606 279.027, 0.750 235.671 C 0.894 192.316, 0.894 121.666, 0.750 78.671 C 0.606 35.677, 0.488 71.150, 0.488 157.500 M 30 155.500 L 30 286 725.500 286 L 1421 286 1421 155.500 L 1421 25 725.500 25 L 30 25 30 155.500 M 1534 55.639 C 1504.407 61.396, 1486.150 72.148, 1472.258 92 C 1447.688 127.113, 1448.467 187.526, 1473.983 225.737 C 1476.241 229.119, 1481.517 235.087, 1485.706 238.999 C 1501.773 254.004, 1525.259 261.161, 1553.500 259.659 C 1585.360 257.964, 1608.177 243.320, 1622.302 215.500 C 1625.944 208.325, 1630 196.990, 1630 193.985 C 1630 192.656, 1627.236 191.614, 1616.926 189.057 C 1609.735 187.274, 1603.648 186.018, 1603.400 186.267 C 1603.151 186.516, 1602.023 189.370, 1600.893 192.610 C 1593.902 212.655, 1583.219 225.305, 1567.894 231.685 C 1562.370 233.985, 1559.715 234.407, 1548.390 234.785 C 1538.023 235.132, 1534.057 234.868, 1529.433 233.524 C 1508.834 227.535, 1494.965 213.408, 1488.666 192 C 1480.146 163.039, 1482.087 131.890, 1493.803 109.537 C 1511.585 75.613, 1565.097 68.282, 1587.460 96.706 C 1591.594 101.960, 1599 115.581, 1599 117.929 C 1599 120.196, 1601.888 120.012, 1614.163 116.959 L 1627.194 113.719 1626.587 110.610 C 1626.253 108.899, 1623.649 102.775, 1620.799 97 C 1616.322 87.926, 1614.388 85.267, 1606.559 77.418 C 1599.205 70.045, 1595.900 67.550, 1589 64.162 C 1576.243 57.898, 1567.098 55.832, 1550.500 55.464 C 1542.800 55.293, 1535.375 55.372, 1534 55.639 M 1728.994 56.476 C 1705.862 60.864, 1688.712 71.365, 1673.463 90.476 C 1667.136 98.406, 1660.603 112.195, 1657.343 124.500 C 1655.011 133.301, 1654.642 136.898, 1654.262 154.500 C 1653.891 171.665, 1654.110 175.864, 1655.808 184.119 C 1665.333 230.422, 1701.084 259.780, 1748.178 259.969 C 1779.309 260.094, 1808.234 246.242, 1824.531 223.405 C 1830.749 214.690, 1836.557 202.044, 1839.778 190.206 C 1842.259 181.089, 1842.422 179.134, 1842.460 158 C 1842.497 137.447, 1842.295 134.721, 1840.129 126.500 C 1830.685 90.659, 1808.120 67.099, 1774.500 57.979 C 1764.068 55.149, 1740.152 54.359, 1728.994 56.476 M 1878.250 59.031 L 1876 59.936 1876 158.468 L 1876 257 1915.949 257 C 1959.639 257, 1972.567 256, 1986.739 251.523 C 2005.340 245.647, 2018.685 233.499, 2028.509 213.500 C 2037.215 195.779, 2040.297 180.557, 2040.354 155 C 2040.431 120.480, 2030.977 95.155, 2011.165 76.813 C 1999.523 66.035, 1985.500 60.825, 1963.274 59.020 C 1947.891 57.771, 1881.364 57.780, 1878.250 59.031 M 2076 157.500 L 2076 257 2150.500 257 L 2225 257 2225 244.500 L 2225 232 2164 232 L 2103 232 2103 199.509 L 2103 167.017 2157.750 166.759 L 2212.500 166.500 2212.781 154.250 L 2213.062 142 2158.638 142 C 2109.933 142, 2104.150 141.834, 2103.607 140.418 C 2103.273 139.548, 2103 126.498, 2103 111.418 L 2103 84 2161.500 84 L 2220 84 2220 71 L 2220 58 2148 58 L 2076 58 2076 157.500 M 152.266 61.202 C 151.683 61.916, 131.097 102.775, 106.519 152 C 81.941 201.225, 59.731 245.655, 57.165 250.734 C 53.395 258.197, 52.713 260.307, 53.609 261.734 C 54.655 263.400, 60.384 263.514, 154.821 263.755 C 253.529 264.006, 254.939 263.982, 255.979 262.039 C 256.864 260.385, 249.057 244.094, 207.212 160.285 C 155.986 57.685, 155.642 57.064, 152.266 61.202 M 487 62.991 L 408.500 63.500 408.226 80.250 L 407.952 97 436.507 97 C 458.479 97, 465.152 97.288, 465.448 98.250 C 466.230 100.786, 466.993 154.026, 466.996 206.250 L 467 260 487 260 L 507 260 507.127 200.750 C 507.196 168.162, 507.534 131.600, 507.877 119.500 L 508.500 97.500 537.250 97.235 L 566 96.969 566 79.485 C 566 69.868, 565.888 62.108, 565.750 62.241 C 565.612 62.373, 530.175 62.711, 487 62.991 M 595.398 62.732 L 590.296 63.094 589.581 108.297 C 589.187 133.159, 588.966 177.402, 589.090 206.617 L 589.314 259.733 596.808 260.367 C 600.930 260.715, 610.084 261, 617.151 261 L 630 261 630 161.500 L 630 62 615.250 62.185 C 607.138 62.287, 598.204 62.533, 595.398 62.732 M 670.819 62.748 L 654.138 63.048 653.510 68.274 C 653.164 71.148, 653.021 78.675, 653.191 85 L 653.500 96.500 682.500 97 L 711.500 97.500 711.756 178.750 L 712.012 260 732.506 260 L 753 260 753 178.500 L 753 97 782 97 L 811 97 811 79.500 L 811 62 749.250 62.224 C 715.288 62.347, 679.994 62.583, 670.819 62.748 M 856.217 62.772 L 836.934 63.043 835.884 65.772 C 834.436 69.536, 835.381 189.275, 836.955 201.500 C 840.039 225.438, 845.650 237.088, 859.449 248.205 C 871.431 257.858, 882.215 261.474, 904.258 263.228 C 931.290 265.378, 951.512 261.721, 966.429 251.983 C 975.476 246.077, 982.323 238.415, 986.535 229.484 C 993.667 214.363, 995 197.231, 995 120.693 L 995 63 974 63 L 953 63 952.993 127.250 C 952.985 196.335, 952.435 205.951, 948.044 213.653 C 938.099 231.098, 905.052 233.787, 888.160 218.525 C 882.505 213.417, 879.290 206.271, 878.037 196.026 C 877.423 191.011, 877 162.161, 877 125.335 C 877 91.116, 876.663 62.979, 876.250 62.809 C 875.837 62.639, 866.823 62.622, 856.217 62.772 M 1247.750 62.743 L 1235 63.060 1235 161.530 L 1235 260 1309.941 260 C 1365.884 260, 1385.064 259.705, 1385.602 258.835 C 1386.791 256.911, 1387.299 243.749, 1386.537 234.598 L 1385.822 226.017 1331.161 225.758 L 1276.500 225.500 1276.500 200 L 1276.500 174.500 1325.500 174 L 1374.500 173.500 1374.500 156.500 L 1374.500 139.500 1325.230 139.241 L 1275.959 138.981 1276.230 118.241 L 1276.500 97.500 1329.274 97.241 L 1382.047 96.982 1381.774 79.741 L 1381.500 62.500 1321 62.464 C 1287.725 62.443, 1254.763 62.569, 1247.750 62.743 M 1036.173 64.292 C 1035.276 65.372, 1035.052 89.302, 1035.245 163.108 L 1035.500 260.500 1073 260.796 C 1113.719 261.117, 1131.229 260.173, 1143.256 257.009 C 1165.890 251.056, 1180.540 238.945, 1191.080 217.477 C 1198.348 202.671, 1200.958 191.203, 1201.657 171 C 1203.097 129.389, 1195.074 103.185, 1174.635 82.746 C 1166.904 75.015, 1154.081 68.073, 1142.500 65.350 C 1132.534 63.007, 1038.020 62.066, 1036.173 64.292 M 276 161.979 L 276 260 346 260 L 416 260 416 243 L 416 226 366.506 226 L 317.012 226 316.756 145.250 L 316.500 64.500 296.250 64.229 L 276 63.959 276 161.979 M 1740.477 78.936 C 1719.309 82.266, 1699.966 94.899, 1691.738 110.769 C 1680.743 131.974, 1678.179 161.351, 1685.090 186.943 C 1691.075 209.106, 1706.181 225.477, 1727.725 233.146 C 1736.008 236.095, 1755.124 236.831, 1764 234.543 C 1776.004 231.448, 1784.701 226.435, 1793.500 217.540 C 1803.103 207.832, 1807.989 199.190, 1811.729 185.295 C 1814.117 176.423, 1814.365 173.805, 1814.365 157.500 C 1814.365 141.196, 1814.117 138.577, 1811.729 129.706 C 1803.433 98.882, 1782.371 80.722, 1752.500 78.635 C 1748.650 78.366, 1743.239 78.501, 1740.477 78.936 M 1903.750 83.572 C 1903.338 83.991, 1903 117.558, 1903 158.167 L 1903 232 1931.750 231.983 C 1964.271 231.963, 1970.056 231.213, 1981.645 225.510 C 1993.885 219.487, 2002.508 208.077, 2007.811 190.886 C 2011.285 179.623, 2012.309 169.125, 2011.737 150.627 C 2011.283 135.973, 2010.822 132.204, 2008.542 124.522 C 2005.278 113.526, 2002.069 107.487, 1995.523 100.019 C 1989.093 92.683, 1982.909 88.414, 1974.889 85.774 C 1969.070 83.858, 1965.645 83.632, 1936.500 83.241 C 1918.900 83.005, 1904.162 83.154, 1903.750 83.572 M 1076.015 160.107 C 1076.024 195.523, 1076.424 225.122, 1076.905 225.881 C 1077.624 227.016, 1081.766 227.164, 1100.140 226.713 C 1123.983 226.128, 1129.858 225.216, 1138.500 220.758 C 1153.398 213.073, 1160 194.876, 1160 161.500 C 1160 133.952, 1155.388 118.143, 1144.396 108.011 C 1134.857 99.218, 1126.401 97.160, 1096.250 96.295 L 1076 95.714 1076.015 160.107 M 152.213 107.144 C 149.751 112.575, 135.168 143.485, 127.512 159.500 C 124.357 166.100, 118.171 179.150, 113.766 188.500 C 109.361 197.850, 101.761 213.779, 96.878 223.897 C 91.995 234.015, 88 242.452, 88 242.647 C 88 242.841, 92.390 243, 97.756 243 L 107.512 243 108.943 239.750 C 109.731 237.963, 116.870 223.225, 124.809 207 C 132.747 190.775, 142.551 170.603, 146.594 162.174 C 150.637 153.745, 154.364 147.107, 154.876 147.423 C 155.754 147.966, 174.779 186.048, 193.724 225.187 L 202.285 242.873 212.145 243.187 C 217.567 243.359, 222.003 243.437, 222.002 243.360 C 222.001 243.284, 216.600 232.096, 210 218.500 C 203.400 204.904, 198 193.667, 198 193.531 C 198 193.394, 194.681 186.356, 190.624 177.891 C 186.567 169.426, 182.331 160.475, 181.210 158 C 175.257 144.859, 155.766 104.380, 155.036 103.644 C 154.569 103.172, 153.301 104.744, 152.213 107.144 M 152.691 192.750 C 151.851 194.813, 146.177 206.739, 140.082 219.253 C 133.987 231.767, 129 242.229, 129 242.503 C 129 242.776, 131.910 243, 135.467 243 L 141.935 243 148.039 230.500 C 151.396 223.625, 154.449 218.027, 154.822 218.060 C 155.195 218.093, 158.246 223.830, 161.601 230.810 L 167.703 243.500 174.101 243.480 C 179.680 243.462, 180.461 243.231, 180.194 241.678 C 180.026 240.698, 177.043 234.182, 173.564 227.198 C 170.086 220.214, 164.485 208.762, 161.117 201.750 C 157.750 194.738, 154.820 189, 154.606 189 C 154.392 189, 153.530 190.688, 152.691 192.750" stroke="none" fill="#446494" fill-rule="evenodd"/></svg>